<svg width="140" height="111" viewBox="0 0 140 111" fill="none" xmlns="http://www.w3.org/2000/svg">
<path d="M54.0227 44.1136C53.7955 41.6136 52.7841 39.6705 50.9886 38.2841C49.2159 36.875 46.6818 36.1705 43.3864 36.1705C41.2045 36.1705 39.3864 36.4545 37.9318 37.0227C36.4773 37.5909 35.3864 38.375 34.6591 39.375C33.9318 40.3523 33.5568 41.4773 33.5341 42.75C33.4886 43.7955 33.6932 44.7159 34.1477 45.5114C34.625 46.3068 35.3068 47.0114 36.1932 47.625C37.1023 48.2159 38.1932 48.7386 39.4659 49.1932C40.7386 49.6477 42.1705 50.0455 43.7614 50.3864L49.7614 51.75C53.2159 52.5 56.2614 53.5 58.8977 54.75C61.5568 56 63.7841 57.4886 65.5795 59.2159C67.3977 60.9432 68.7727 62.9318 69.7045 65.1818C70.6364 67.4318 71.1136 69.9545 71.1364 72.75C71.1136 77.1591 70 80.9432 67.7955 84.1023C65.5909 87.2614 62.4205 89.6818 58.2841 91.3636C54.1705 93.0455 49.2045 93.8864 43.3864 93.8864C37.5455 93.8864 32.4545 93.0114 28.1136 91.2614C23.7727 89.5114 20.3977 86.8523 17.9886 83.2841C15.5795 79.7159 14.3409 75.2045 14.2727 69.75H30.4318C30.5682 72 31.1705 73.875 32.2386 75.375C33.3068 76.875 34.7727 78.0114 36.6364 78.7841C38.5227 79.5568 40.7045 79.9432 43.1818 79.9432C45.4545 79.9432 47.3864 79.6364 48.9773 79.0227C50.5909 78.4091 51.8295 77.5568 52.6932 76.4659C53.5568 75.375 54 74.125 54.0227 72.7159C54 71.3977 53.5909 70.2727 52.7955 69.3409C52 68.3864 50.7727 67.5682 49.1136 66.8864C47.4773 66.1818 45.3864 65.5341 42.8409 64.9432L35.5455 63.2386C29.5 61.8523 24.7386 59.6136 21.2614 56.5227C17.7841 53.4091 16.0568 49.2045 16.0795 43.9091C16.0568 39.5909 17.2159 35.8068 19.5568 32.5568C21.8977 29.3068 25.1364 26.7727 29.2727 24.9545C33.4091 23.1364 38.125 22.2273 43.4205 22.2273C48.8295 22.2273 53.5227 23.1477 57.5 24.9886C61.5 26.8068 64.6023 29.3636 66.8068 32.6591C69.0114 35.9545 70.1364 39.7727 70.1818 44.1136H54.0227Z" fill="black"/>
<mask id="path-2-inside-1_24_5" fill="white">
<path d="M85 84C85 87.5457 83.9007 91.0567 81.7649 94.3325C79.629 97.6083 76.4985 100.585 72.552 103.092C68.6055 105.599 63.9204 107.588 58.764 108.945C53.6077 110.302 48.0811 111 42.5 111C36.9188 111 31.3922 110.302 26.2359 108.945C21.0796 107.588 16.3944 105.599 12.4479 103.092C8.50144 100.585 5.37091 97.6082 3.23509 94.3324C1.09928 91.0566 -9.80246e-06 87.5456 0 84L10.6948 84C10.6948 86.6534 11.5175 89.2809 13.1158 91.7323C14.7142 94.1838 17.0569 96.4113 20.0103 98.2875C22.9637 100.164 26.4699 101.652 30.3287 102.668C34.1874 103.683 38.3233 104.206 42.5 104.206C46.6767 104.206 50.8125 103.683 54.6713 102.668C58.5301 101.652 62.0363 100.164 64.9897 98.2876C67.943 96.4113 70.2858 94.1838 71.8842 91.7324C73.4825 89.2809 74.3052 86.6534 74.3052 84H85Z"/>
</mask>
<path d="M85 84C85 87.5457 83.9007 91.0567 81.7649 94.3325C79.629 97.6083 76.4985 100.585 72.552 103.092C68.6055 105.599 63.9204 107.588 58.764 108.945C53.6077 110.302 48.0811 111 42.5 111C36.9188 111 31.3922 110.302 26.2359 108.945C21.0796 107.588 16.3944 105.599 12.4479 103.092C8.50144 100.585 5.37091 97.6082 3.23509 94.3324C1.09928 91.0566 -9.80246e-06 87.5456 0 84L10.6948 84C10.6948 86.6534 11.5175 89.2809 13.1158 91.7323C14.7142 94.1838 17.0569 96.4113 20.0103 98.2875C22.9637 100.164 26.4699 101.652 30.3287 102.668C34.1874 103.683 38.3233 104.206 42.5 104.206C46.6767 104.206 50.8125 103.683 54.6713 102.668C58.5301 101.652 62.0363 100.164 64.9897 98.2876C67.943 96.4113 70.2858 94.1838 71.8842 91.7324C73.4825 89.2809 74.3052 86.6534 74.3052 84H85Z" fill="white" stroke="black" stroke-width="14" mask="url(#path-2-inside-1_24_5)"/>
</svg>
